<svg width="98" height="45" viewBox="0 0 98 45" xmlns="http://www.w3.org/2000/svg">
<path d="M50.1202 12.0786C49.9949 12.0053 49.8716 11.9302 49.7386 11.8644C49.2313 11.612 37.0615 5.63033 14.5655 0.291948C12.9885 -0.0821053 11.3265 0.189319 9.9513 1.04833C8.57614 1.90735 7.60141 3.28022 7.24439 4.86111L0.216385 36.0259C-0.520535 39.2956 1.53175 42.5431 4.80135 43.2809C5.23062 43.3771 5.65944 43.426 6.08206 43.4302C8.88022 43.4583 11.4156 41.5363 12.0564 38.6958L17.7186 13.5921C24.64 15.4205 30.284 17.2493 34.5663 18.7858C33.3651 21.4802 33.8534 23.2498 38.8213 25.7759C43.0076 27.5266 47.0305 30.355 50.6676 33.3076L61.2583 28.2452C61.9478 27.9157 62.682 27.7525 63.441 27.7601C65.3456 27.7792 67.0397 28.8585 67.8611 30.5774C69.038 33.0407 67.9924 36.0031 65.529 37.181L50.6437 44.2954C50.538 44.3455 50.4276 44.3861 50.3182 44.4286L53.8911 44.4939L53.9234 44.4942C53.9679 44.4946 54.0134 44.4941 54.0579 44.4927L66.8138 44.1772C67.0299 44.1813 67.2422 44.1739 67.4546 44.1609L68.0196 44.1476C68.9059 44.1262 69.7127 43.8054 70.3538 43.2887C70.7161 43.0659 71.0599 42.8097 71.3663 42.4962C74.3518 39.4415 75.4415 33.1182 70.5405 27.419C64.0948 20.0117 59.1276 16.1835 50.1213 12.0788L50.1202 12.0786Z"/>
<path d="M25.9829 39.9276C25.9919 42.0533 27.708 43.7725 29.8268 43.7937C29.8458 43.7939 29.8647 43.7941 29.8837 43.7934L48.5223 43.7103C49.0967 43.7075 49.6618 43.5777 50.1798 43.3308L65.0651 36.2163C67.0001 35.2919 67.8195 32.9737 66.894 31.0376C65.9686 29.1017 63.6513 28.2833 61.7153 29.2088L47.6164 35.9473L29.8487 36.0268C27.705 36.0356 25.9732 37.7828 25.9829 39.9274L25.9829 39.9276Z"/>
<path d="M88.6606 23.1743C94.5416 24.6061 98.1486 30.5344 96.7167 36.4154C95.285 42.2964 89.3567 45.9034 83.4756 44.4704C77.5946 43.0387 73.9876 37.1104 75.4195 31.2304C76.8523 25.3494 82.7796 21.7424 88.6606 23.1743Z"/>
</svg>
