<svg width="102" height="151" viewBox="0 0 102 151" xmlns="http://www.w3.org/2000/svg">
<path d="M34.4962 62.8491L34.1524 97.1174C29.329 102.931 15.7941 120.609 9.77338 143.521C9.09957 146.11 10.6496 148.757 13.2383 149.43C13.6314 149.532 14.0264 149.584 14.4137 149.588C16.5847 149.61 18.5741 148.159 19.1471 145.964C22.4169 133.388 28.4266 122.195 33.6265 114.212C34.3039 113.171 34.9643 112.189 35.605 111.263C36.3032 103.66 42.751 97.7194 50.52 97.7973C58.2904 97.8753 64.6201 103.949 65.1616 111.569C70.55 119.731 77.5256 132.289 80.9186 146.585C81.4474 148.792 83.4073 150.28 85.5768 150.303C85.9655 150.307 86.3615 150.264 86.7565 150.169C89.3568 149.548 90.9609 146.933 90.3393 144.333C84.7809 121.306 71.6064 103.358 66.8992 97.4488L67.2431 63.1778L100.208 12.4956C102.463 9.0295 101.479 4.39357 98.014 2.13966C94.5494 -0.114244 89.9135 0.866376 87.6582 4.33243L56.1864 52.7183L45.761 52.6137L15.2665 3.60603C13.0814 0.0954144 8.46481 -0.978013 4.95672 1.20589C1.44612 3.38963 0.370253 8.00617 2.55523 11.5157L34.4962 62.8491Z" />
<path d="M63.9938 112.769C63.9183 120.291 57.7572 126.328 50.235 126.253C42.7114 126.177 36.6741 120.017 36.7495 112.495C36.825 104.972 42.9848 98.9343 50.5083 99.0098C58.0305 99.0852 64.0693 105.245 63.9938 112.769Z"/>
</svg>
