<svg width="100" height="68" viewBox="0 0 100 68" xmlns="http://www.w3.org/2000/svg">
<path d="M50.4051 54.6167C51.1778 55.3825 51.6729 56.3997 51.8002 57.4817C51.9505 58.7627 51.5935 60.0259 50.7937 61.0377C49.9948 62.0495 48.8488 62.6904 47.5678 62.84L44.2232 63.2326C45.8366 64.8428 48.12 66.1316 51.1469 66.6851C61.0707 68.4404 67.3205 68.1944 77.5349 65.4096C81.7039 63.9243 83.4924 61.5691 84.1301 59.0256C84.3082 58.5668 84.4363 58.0809 84.4956 57.5688C84.5303 57.2704 88.1064 27.5246 99.1667 8.94484C100.838 6.13685 99.9163 2.5054 97.1084 0.833403C94.3004 -0.837767 90.6689 0.0830262 88.9969 2.89176C80.2261 17.6262 75.7896 37.6782 73.9008 48.5169C62.2951 49.4539 58.1653 49.9197 51.8424 49.6467C47.8082 49.1176 43.468 50.8204 41.884 53.7841L46.441 53.2489C47.9101 53.0777 49.3554 53.5759 50.4057 54.617L50.4051 54.6167Z"/>
<path d="M0.000704491 66.2569C0.0724253 66.8669 0.62461 67.3034 1.23462 67.2317L8.75062 66.3486C8.76836 66.3471 8.78455 66.3471 8.80229 66.3455L47.4464 61.8063C49.5233 61.5626 51.0102 59.6801 50.7663 57.6033C50.6622 56.7172 50.2604 55.9391 49.672 55.3568C48.8815 54.5741 47.754 54.1445 46.5633 54.2849L7.9192 58.8241C5.84169 59.067 -0.0712137 65.6469 0.000649325 66.2568L0.000704491 66.2569Z"/>
<path d="M30.6879 46.3644C36.5476 47.7651 40.1265 53.6525 38.6813 59.5142C37.2363 65.3758 31.3146 68.9923 25.4549 67.5903C19.5953 66.1896 16.0164 60.3021 17.4616 54.4415C18.9076 48.5799 24.8283 44.9635 30.6879 46.3644Z"/>
</svg>
