<svg width="102" height="152" viewBox="0 0 102 152" xmlns="http://www.w3.org/2000/svg">
<path d="M90.2333 7.22457L74.7245 7.06895C74.227 5.05624 72.2322 3.77045 70.1794 4.18469C68.68 4.4861 67.558 5.61178 67.1857 6.9933L35.696 6.67732C35.3505 5.28752 34.2534 4.1396 32.7614 3.80922C30.7173 3.35489 28.6961 4.59835 28.1583 6.60168L12.6484 6.44605L12.7119 0.112431L1.50732 0L9.55118e-05 150.207L11.2047 150.319L12.5897 12.2926L27.0216 12.4374C26.3272 16.6828 25.9943 20.5176 25.9597 23.9689C25.8356 34.8716 28.6974 42.0771 31.871 46.4976C34.1392 49.6723 36.4852 51.3681 37.8092 52.1516L37.0791 124.911C37.0457 128.238 39.7167 130.96 43.0411 130.993C46.3677 131.027 49.0917 128.358 49.1251 125.031L49.5175 85.9241L51.7755 85.9468L51.383 125.054C51.3497 128.382 54.0207 131.104 57.3451 131.137C60.6716 131.17 63.3957 128.502 63.4291 125.175L64.1592 52.416C65.4975 51.6592 67.8772 50.0097 70.2096 46.8823C73.4691 42.5277 76.4771 35.3811 76.5707 24.4789C76.6053 21.0276 76.3484 17.1855 75.7404 12.9273L90.1723 13.0721L88.7873 151.099L99.9919 151.211L101.502 1.00446L90.2977 0.892028L90.2333 7.22457ZM68.7767 24.3996C68.6661 33.9528 66.16 39.2488 63.9589 42.2247C62.8511 43.712 61.7909 44.6266 61.0616 45.1558C61.0278 45.1806 60.9983 45.2002 60.9645 45.2229C60.8023 45.1993 60.6369 45.1829 60.4683 45.1812L41.6474 44.9913C41.4776 44.9896 41.312 45.0026 41.1483 45.023C40.3432 44.4323 39.075 43.3057 37.8098 41.3713C35.7892 38.2629 33.6771 33.0025 33.7554 24.046C33.7877 20.7267 34.1352 16.8982 34.9137 12.5155L67.8519 12.846C68.5402 17.2445 68.8108 21.0792 68.7765 24.3996L68.7767 24.3996Z"/>
<path d="M53.7846 21.2428C59.6657 22.6745 63.2727 28.6029 61.8407 34.4839C60.409 40.3649 54.4807 43.9719 48.5997 42.5389C42.7186 41.1072 39.1116 35.1789 40.5436 29.2989C41.9763 23.4179 47.9036 19.8109 53.7846 21.2428Z"/>
<path d="M53.7846 21.2428C59.6657 22.6746 63.2727 28.6029 61.8407 34.4839C60.409 40.3649 54.4807 43.9719 48.5997 42.5389C42.7186 41.1072 39.1116 35.1789 40.5436 29.2989C41.9763 23.4179 47.9036 19.8109 53.7846 21.2428Z"/>
</svg>
