<svg width="104" height="29" viewBox="0 0 104 29" xmlns="http://www.w3.org/2000/svg">
<path d="M76.7284 11.9726C76.6439 13.0748 76.135 14.0768 75.2963 14.7962C74.5476 15.4391 73.5918 15.7926 72.6056 15.7926C71.9469 15.7926 71.3108 15.6316 70.7378 15.3422L71.187 19.9165C71.7702 19.6654 72.3624 19.4053 72.9748 19.125C78.6693 16.4793 80.0213 11.2914 78.8033 7.93771C77.9004 5.44737 74.9315 4.25059 71.8692 4.44197L75.7454 8.96346C76.4637 9.80222 76.8138 10.8706 76.7283 11.9727L76.7284 11.9726Z"/>
<path d="M60.8535 23.1063C61.6259 22.9757 62.3847 22.8203 63.139 22.6447L61.6337 7.31201C57.3636 8.5234 52.6484 9.56256 48.2678 9.43309C42.605 9.6864 42.3796 11.3763 42.7174 15.078C42.7219 15.1321 42.7276 15.1872 42.7332 15.2424C32.0019 16.4166 17.4967 17.7451 4.97149 17.9894C2.17156 18.0446 -0.053215 20.3582 0.000969089 23.1582C0.0550091 25.9244 2.31454 28.1288 5.06833 28.1288C5.10211 28.1288 5.13589 28.1288 5.16966 28.1276C28.9302 27.6638 58.5295 23.5557 59.7774 23.3811C60.1535 23.3293 60.5103 23.2336 60.8515 23.1064L60.8535 23.1063Z"/>
<path d="M64.3265 25.5993C64.4909 27.2757 65.9027 28.5276 67.5519 28.5276C67.6577 28.5276 67.7658 28.5219 67.8728 28.5118C69.6561 28.3362 70.9598 26.7488 70.7852 24.9653L69.1381 8.17923L70.0613 8.4483L70.6287 14.2261C71.2062 14.6697 71.9031 14.8994 72.6057 14.8994C73.3532 14.8994 74.1041 14.6427 74.7155 14.118C76.0755 12.9517 76.2331 10.9027 75.0667 9.54265L67.8557 1.13259C67.8185 1.08868 67.778 1.0504 67.7386 1.00875C67.7138 0.982852 67.6913 0.956956 67.6665 0.93219C67.6091 0.875899 67.5494 0.822982 67.4886 0.771196C67.4717 0.75656 67.4537 0.740798 67.4368 0.726162C67.3704 0.670995 67.3006 0.621461 67.2308 0.571923C67.2162 0.561791 67.2027 0.551658 67.188 0.541526C67.116 0.493114 67.0417 0.449207 66.9674 0.407552C66.9505 0.398545 66.9347 0.388412 66.9178 0.379406C66.8458 0.341128 66.7715 0.306226 66.6972 0.273577C66.6735 0.263445 66.651 0.252187 66.6274 0.24318C66.5587 0.215034 66.4889 0.190265 66.418 0.166623C66.3864 0.156491 66.3538 0.145234 66.3223 0.1351C66.2581 0.115961 66.1928 0.1002 66.1275 0.0844375C66.0881 0.0754308 66.0498 0.0652982 66.0104 0.0585433C65.9485 0.0461591 65.8854 0.0371517 65.8224 0.0292717C65.7796 0.0236426 65.738 0.0180133 65.6952 0.01351C65.6299 0.00788061 65.5646 0.00450326 65.4993 0.0033775C65.4588 0.00225145 65.4194 -1.08836e-09 65.3788 -1.07485e-09C65.3068 -1.05084e-09 65.2336 0.0045034 65.1615 0.0101325C65.1345 0.0123843 65.1064 0.0112582 65.0793 0.01351C65.0726 0.0146358 65.0658 0.0157617 65.0591 0.0168875C64.978 0.0258942 64.8981 0.0382784 64.8182 0.0529141C64.7923 0.0574178 64.7652 0.0607948 64.7393 0.0664241C64.6605 0.0821857 64.5817 0.104702 64.504 0.126093C64.4781 0.132848 64.4523 0.138478 64.4275 0.146358C64.3599 0.167749 64.2946 0.193643 64.2282 0.218412C64.1944 0.231922 64.1584 0.243181 64.1246 0.25669C64.0762 0.276955 64.0289 0.30285 63.9817 0.325366C63.9321 0.349008 63.8826 0.371526 63.8353 0.397419C63.8015 0.416558 63.7689 0.437947 63.7351 0.458214C63.6754 0.493114 63.6169 0.528015 63.5595 0.56742C63.5313 0.586559 63.5043 0.609076 63.4773 0.629341C63.4176 0.673247 63.3591 0.717156 63.3028 0.764441C63.2971 0.77007 63.2904 0.773447 63.2848 0.779076C63.26 0.800467 63.2375 0.824108 63.2138 0.846626C63.1654 0.890533 63.1181 0.934443 63.072 0.9806C63.0348 1.01888 63.0011 1.05828 62.9662 1.09769C62.9324 1.13596 62.8975 1.17425 62.866 1.21477C62.8288 1.26093 62.7939 1.30934 62.7601 1.35663C62.7342 1.39378 62.7072 1.42981 62.6824 1.46809C62.6498 1.51875 62.6194 1.56941 62.589 1.6212C62.5654 1.6606 62.5428 1.70113 62.5214 1.74166C62.4956 1.7912 62.4719 1.84186 62.4494 1.89253C62.428 1.93869 62.4066 1.98597 62.3875 2.03325C62.3695 2.07941 62.3526 2.12558 62.3368 2.17287C62.3177 2.22691 62.2985 2.28207 62.2828 2.33723C62.2704 2.38001 62.2603 2.4228 62.249 2.46446C62.2344 2.52413 62.2197 2.58379 62.2085 2.64572C62.2006 2.6885 62.195 2.73128 62.1882 2.77406C62.1792 2.83486 62.1713 2.89453 62.1657 2.95645C62.1612 3.00598 62.1601 3.05439 62.1578 3.10393C62.1556 3.1591 62.1522 3.21314 62.1533 3.2683C62.1533 3.33022 62.1578 3.39214 62.1623 3.45406C62.1646 3.48896 62.1634 3.52387 62.1668 3.55989L62.419 6.12677L62.428 6.22022L64.3265 25.5993Z"/>
<path d="M94.664 3.42297C100.545 4.85469 104.152 10.783 102.72 16.664C101.288 22.5451 95.3601 26.1521 89.4791 24.7191C83.598 23.2873 79.991 17.359 81.423 11.4791C82.8557 5.59805 88.783 1.99104 94.664 3.42297Z"/>
</svg>
