<svg width="102" height="131" viewBox="0 0 102 131" xmlns="http://www.w3.org/2000/svg">
<path d="M30.7954 45.9547C26.7569 45.9715 23.4776 42.7233 23.4832 38.7144C23.4902 34.7006 26.7853 31.4157 30.8283 31.3941L38.9432 31.3485C36.6869 27.3322 33.0508 24.8554 29.5354 24.1643C23.3405 22.9435 17.2052 29.4925 15.9701 36.7933C13.3941 46.6651 10.3044 61.1068 3.46593 71.5074C-1.40583 80.266 0.938024 82.1432 6.84206 85.0048C9.18821 86.1417 11.8134 87.186 14.5654 87.4407C15.0224 87.5184 15.4878 87.5711 15.9677 87.5775L47.0174 87.9476L23.5959 115.555C20.3878 119.337 20.8561 124.964 24.6434 128.122C26.3256 129.524 28.3775 130.205 30.4218 130.197C32.9808 130.186 35.526 129.096 37.3096 126.993L72.9602 84.9703C75.2026 82.3267 75.7221 78.6482 74.2926 75.5195C72.8643 72.3908 69.7429 70.3708 66.2743 70.3293L33.5702 69.9398C37.3449 62.2696 39.3308 55.2449 40.6567 45.8984L30.8027 45.9536L30.7954 45.9547Z" />
<path d="M98.5932 32.7323L98.5896 32.7323L85.0289 32.8012C84.9132 32.7947 84.8 32.7858 84.6831 32.7863L84.6748 32.7863L30.726 33.0723C27.5616 33.0893 24.992 35.6005 24.9883 38.6823C24.9845 41.7617 27.541 44.2461 30.703 44.2339L30.7078 44.2339L84.6596 43.9478C87.8241 43.9309 101.025 36.4096 101.028 35.0974C101.029 33.7841 99.9411 32.727 98.5937 32.7322L98.5932 32.7323Z"/>
<path d="M42.688 1.45789C48.5477 2.85859 52.1266 8.74604 50.6814 14.6077C49.2364 20.4693 43.3147 24.0858 37.4551 22.6838C31.5954 21.2831 28.0165 15.3956 29.4617 9.53505C30.9077 3.67341 36.8284 0.0569772 42.688 1.45789Z"/>
</svg>
